<mxfile host="app.diagrams.net" modified="2021-11-18T07:27:23.968Z" agent="5.0 (Windows NT 10.0; Win64; x64) AppleWebKit/537.36 (KHTML, like Gecko) Chrome/95.0.4638.69 Safari/537.36" etag="nGTzZWQOpzG_tL2RhTvm" version="15.8.2" type="github">
  <diagram id="QmFLCAPsfilFU5ywDQWz" name="第 1 页">
    <mxGraphModel dx="960" dy="476" grid="1" gridSize="10" guides="1" tooltips="1" connect="1" arrows="1" fold="1" page="1" pageScale="1" pageWidth="827" pageHeight="1169" math="0" shadow="0">
      <root>
        <mxCell id="0" />
        <mxCell id="1" parent="0" />
      </root>
    </mxGraphModel>
  </diagram>
</mxfile>
